<mxfile host="app.diagrams.net" modified="2023-08-11T07:43:12.130Z" agent="Mozilla/5.0 (Windows NT 10.0; Win64; x64) AppleWebKit/537.36 (KHTML, like Gecko) Chrome/115.0.0.0 Safari/537.36" version="21.6.8" etag="gJcAdZMkWKN4gmkwUrQ_" type="github">
  <diagram name="Page-1" id="__23Zr8NrXP4IO-P82z5">
    <mxGraphModel>
      <root>
        <mxCell id="0" />
        <mxCell id="1" parent="0" />
      </root>
    </mxGraphModel>
  </diagram>
</mxfile>
